<mxfile host="Electron" modified="2023-12-06T17:18:27.801Z" agent="Mozilla/5.0 (Windows NT 10.0; Win64; x64) AppleWebKit/537.36 (KHTML, like Gecko) draw.io/22.1.2 Chrome/114.0.5735.289 Electron/25.9.4 Safari/537.36" etag="sQsI19osCLwTi8MfZKPD" version="22.1.2" type="device">
  <diagram name="Page-1" id="pguXm5ocKENULovpZsUC">
    <mxGraphModel dx="1418" dy="825" grid="1" gridSize="10" guides="1" tooltips="1" connect="1" arrows="1" fold="1" page="1" pageScale="1" pageWidth="827" pageHeight="1169" math="0" shadow="0">
      <root>
        <mxCell id="0" />
        <mxCell id="1" parent="0" />
        <mxCell id="GmUVmYz1VItrXJsaxcrF-1" value="Start" style="rounded=1;whiteSpace=wrap;html=1;" parent="1" vertex="1">
          <mxGeometry x="360" y="120" width="120" height="40" as="geometry" />
        </mxCell>
        <mxCell id="GmUVmYz1VItrXJsaxcrF-2" value="" style="endArrow=classic;html=1;rounded=0;exitX=0.5;exitY=1;exitDx=0;exitDy=0;" parent="1" source="GmUVmYz1VItrXJsaxcrF-1" edge="1">
          <mxGeometry width="50" height="50" relative="1" as="geometry">
            <mxPoint x="395" y="260" as="sourcePoint" />
            <mxPoint x="420" y="240" as="targetPoint" />
          </mxGeometry>
        </mxCell>
        <mxCell id="GmUVmYz1VItrXJsaxcrF-3" value="Height &amp;gt; 120cm?" style="rhombus;whiteSpace=wrap;html=1;labelBackgroundColor=none;" parent="1" vertex="1">
          <mxGeometry x="340" y="240" width="160" height="80" as="geometry" />
        </mxCell>
        <mxCell id="GmUVmYz1VItrXJsaxcrF-4" value="" style="endArrow=classic;html=1;rounded=0;exitX=0;exitY=0.5;exitDx=0;exitDy=0;" parent="1" source="GmUVmYz1VItrXJsaxcrF-3" edge="1">
          <mxGeometry width="50" height="50" relative="1" as="geometry">
            <mxPoint x="330" y="330" as="sourcePoint" />
            <mxPoint x="280" y="360" as="targetPoint" />
            <Array as="points">
              <mxPoint x="290" y="280" />
              <mxPoint x="280" y="280" />
            </Array>
          </mxGeometry>
        </mxCell>
        <mxCell id="GmUVmYz1VItrXJsaxcrF-5" value="" style="endArrow=classic;html=1;rounded=0;exitX=1;exitY=0.5;exitDx=0;exitDy=0;" parent="1" source="GmUVmYz1VItrXJsaxcrF-3" edge="1">
          <mxGeometry width="50" height="50" relative="1" as="geometry">
            <mxPoint x="650" y="280" as="sourcePoint" />
            <mxPoint x="560" y="360" as="targetPoint" />
            <Array as="points">
              <mxPoint x="560" y="280" />
            </Array>
          </mxGeometry>
        </mxCell>
        <mxCell id="GmUVmYz1VItrXJsaxcrF-6" value="Can&#39;t Ride" style="rounded=0;whiteSpace=wrap;html=1;" parent="1" vertex="1">
          <mxGeometry x="220" y="360" width="120" height="60" as="geometry" />
        </mxCell>
        <mxCell id="GmUVmYz1VItrXJsaxcrF-7" value="Can Ride" style="rounded=0;whiteSpace=wrap;html=1;" parent="1" vertex="1">
          <mxGeometry x="500" y="360" width="120" height="60" as="geometry" />
        </mxCell>
        <mxCell id="GmUVmYz1VItrXJsaxcrF-9" value="No" style="text;html=1;align=center;verticalAlign=middle;resizable=0;points=[];autosize=1;strokeColor=none;fillColor=none;" parent="1" vertex="1">
          <mxGeometry x="290" y="248" width="40" height="30" as="geometry" />
        </mxCell>
        <mxCell id="GmUVmYz1VItrXJsaxcrF-10" value="Yes" style="text;html=1;align=center;verticalAlign=middle;resizable=0;points=[];autosize=1;strokeColor=none;fillColor=none;" parent="1" vertex="1">
          <mxGeometry x="510" y="248" width="40" height="30" as="geometry" />
        </mxCell>
        <mxCell id="6Ryb_hq_ZW3vcrth7_Jp-1" value="" style="endArrow=classic;html=1;rounded=0;exitX=0.5;exitY=1;exitDx=0;exitDy=0;" parent="1" source="GmUVmYz1VItrXJsaxcrF-7" edge="1">
          <mxGeometry width="50" height="50" relative="1" as="geometry">
            <mxPoint x="390" y="460" as="sourcePoint" />
            <mxPoint x="560" y="480" as="targetPoint" />
          </mxGeometry>
        </mxCell>
        <mxCell id="6Ryb_hq_ZW3vcrth7_Jp-4" style="edgeStyle=orthogonalEdgeStyle;rounded=0;orthogonalLoop=1;jettySize=auto;html=1;" parent="1" source="6Ryb_hq_ZW3vcrth7_Jp-2" edge="1">
          <mxGeometry relative="1" as="geometry">
            <mxPoint x="400" y="600" as="targetPoint" />
          </mxGeometry>
        </mxCell>
        <mxCell id="O9KnwrWEtPx5Pzzlpwda-2" style="edgeStyle=orthogonalEdgeStyle;rounded=0;orthogonalLoop=1;jettySize=auto;html=1;entryX=0.5;entryY=0;entryDx=0;entryDy=0;" edge="1" parent="1" source="6Ryb_hq_ZW3vcrth7_Jp-2" target="O9KnwrWEtPx5Pzzlpwda-1">
          <mxGeometry relative="1" as="geometry" />
        </mxCell>
        <mxCell id="6Ryb_hq_ZW3vcrth7_Jp-2" value="Age" style="rhombus;whiteSpace=wrap;html=1;labelBackgroundColor=none;" parent="1" vertex="1">
          <mxGeometry x="520" y="480" width="80" height="80" as="geometry" />
        </mxCell>
        <mxCell id="6Ryb_hq_ZW3vcrth7_Jp-5" style="edgeStyle=orthogonalEdgeStyle;rounded=0;orthogonalLoop=1;jettySize=auto;html=1;exitX=1;exitY=0.5;exitDx=0;exitDy=0;" parent="1" source="6Ryb_hq_ZW3vcrth7_Jp-2" edge="1">
          <mxGeometry relative="1" as="geometry">
            <mxPoint x="717" y="600" as="targetPoint" />
            <mxPoint x="610" y="520" as="sourcePoint" />
          </mxGeometry>
        </mxCell>
        <mxCell id="6Ryb_hq_ZW3vcrth7_Jp-6" value="$5" style="rounded=0;whiteSpace=wrap;html=1;" parent="1" vertex="1">
          <mxGeometry x="360" y="600" width="80" height="60" as="geometry" />
        </mxCell>
        <mxCell id="6Ryb_hq_ZW3vcrth7_Jp-7" value="$12" style="rounded=0;whiteSpace=wrap;html=1;" parent="1" vertex="1">
          <mxGeometry x="680" y="600" width="80" height="60" as="geometry" />
        </mxCell>
        <mxCell id="6Ryb_hq_ZW3vcrth7_Jp-8" style="edgeStyle=orthogonalEdgeStyle;rounded=0;orthogonalLoop=1;jettySize=auto;html=1;exitX=0.5;exitY=1;exitDx=0;exitDy=0;" parent="1" source="6Ryb_hq_ZW3vcrth7_Jp-6" target="6Ryb_hq_ZW3vcrth7_Jp-6" edge="1">
          <mxGeometry relative="1" as="geometry" />
        </mxCell>
        <mxCell id="6Ryb_hq_ZW3vcrth7_Jp-9" value="Under 12" style="text;html=1;align=center;verticalAlign=middle;resizable=0;points=[];autosize=1;strokeColor=none;fillColor=none;" parent="1" vertex="1">
          <mxGeometry x="419" y="480" width="70" height="30" as="geometry" />
        </mxCell>
        <mxCell id="6Ryb_hq_ZW3vcrth7_Jp-10" value="Over 18" style="text;html=1;align=center;verticalAlign=middle;resizable=0;points=[];autosize=1;strokeColor=none;fillColor=none;" parent="1" vertex="1">
          <mxGeometry x="640" y="480" width="70" height="30" as="geometry" />
        </mxCell>
        <mxCell id="O9KnwrWEtPx5Pzzlpwda-1" value="$7" style="rounded=0;whiteSpace=wrap;html=1;" vertex="1" parent="1">
          <mxGeometry x="520" y="600" width="80" height="60" as="geometry" />
        </mxCell>
        <mxCell id="O9KnwrWEtPx5Pzzlpwda-3" value="12 - 18" style="text;html=1;align=center;verticalAlign=middle;resizable=0;points=[];autosize=1;strokeColor=none;fillColor=none;" vertex="1" parent="1">
          <mxGeometry x="570" y="560" width="60" height="30" as="geometry" />
        </mxCell>
      </root>
    </mxGraphModel>
  </diagram>
</mxfile>

